{"title":"Endless Love - 2014 (No Cinavia) 1080p AAC","uid":10988440,"size":1765736413,"categoryP":"video","categoryS":"hd___movies","magnet":"?xt=urn:btih:2f0471d2dda57114567c4e6e435176e25e190c33&amp;dn=Endless+Love+-+2014+%28No+Cinavia%29+1080p+AAC&amp;tr=udp%3A%2F%2Ftracker.openbittorrent.com%3A80&amp;tr=udp%3A%2F%2Fopen.demonii.com%3A1337&amp;tr=udp%3A%2F%2Ftracker.coppersurfer.tk%3A6969&amp;tr=udp%3A%2F%2Fexodus.desync.com%3A6969","seeders":5,"leechers":0,"uploader":"AlienMethod","files":-1,"time":1409956742,"description":"Cinavia Removed/CinEx HD\n(Credit to Yify-Torrent for Source File Prior to Cinavia Processing)\n\n&quot;The story of a privileged girl and a charismatic boy whose instant desire sparks a love affair made only more reckless by parents trying to keep them apart.&quot;\n\n\nVideo\nID : 1\nFormat : AVC\nFormat/Info : Advanced Video Codec\nFormat profile : &lt;a class=&quot;__cf_email__&quot; href=&quot;/cdn-cgi/l/email-protection&quot; data-cfemail=&quot;de96b7b9b69e92eaf0ef&quot;&gt;[email&amp;#160;protected]&lt;/a&gt;&lt;script cf-hash='f9e31' type=&quot;text/javascript&quot;&gt;\n/* &lt;![CDATA[ */!function(){try{var t=&quot;currentScript&quot;in document?document.currentScript:function(){for(var t=document.getElementsByTagName(&quot;script&quot;),e=t.length;e--;)if(t[e].getAttribute(&quot;cf-hash&quot;))return t[e]}();if(t&amp;&amp;t.previousSibling){var e,r,n,i,c=t.previousSibling,a=c.getAttribute(&quot;data-cfemail&quot;);if(a){for(e=&quot;&quot;,r=parseInt(a.substr(0,2),16),n=2;a.length-n;n+=2)i=parseInt(a.substr(n,2),16)^r,e+=String.fromCharCode(i);e=document.createTextNode(e),c.parentNode.replaceChild(e,c)}}}catch(u){}}();/* ]]&gt; */&lt;/script&gt;\nFormat settings, CABAC : Yes\nFormat settings, ReFrames : 4 frames\nCodec ID : avc1\nCodec ID/Info : Advanced Video Coding\nDuration : 1h 44mn\nBit rate : 2 151 Kbps\nWidth : 1 920 pixels\nHeight : 816 pixels\nDisplay aspect ratio : 2.35:1\nFrame rate mode : Variable\nFrame rate : 23.976 fps\nMinimum frame rate : 23.976 fps\nMaximum frame rate : 24.024 fps\nColor space : YUV\nChroma subsampling : 4:2:0\nBit depth : 8 bits\nScan type : Progressive\nBits/(Pixel*Frame) : 0.057\nStream size : 1.57 GiB (96%)\nWriting library : x264 core 142 r2409 d6b4e63\n\nAudio\nID : 2\nFormat : AAC\nFormat/Info : Advanced Audio Codec\nFormat profile : LC\nCodec ID : 40\nDuration : 1h 44mn\nBit rate mode : Variable\nBit rate : 93.7 Kbps\nMaximum bit rate : 375 Kbps\nChannel(s) : 2 channels\nChannel positions : Front: L R\nSampling rate : 48.0 KHz\nCompression mode : Lossy\nStream size : 70.1 MiB (4%)\n\n","torrent":{"xt":"urn:btih:2f0471d2dda57114567c4e6e435176e25e190c33","amp;dn":"Endless+Love+-+2014+%28No+Cinavia%29+1080p+AAC","amp;tr":["udp%3A%2F%2Ftracker.openbittorrent.com%3A80","udp%3A%2F%2Fopen.demonii.com%3A1337","udp%3A%2F%2Ftracker.coppersurfer.tk%3A6969","udp%3A%2F%2Fexodus.desync.com%3A6969"],"infoHash":"2f0471d2dda57114567c4e6e435176e25e190c33","infoHashBuffer":{"type":"Buffer","data":[47,4,113,210,221,165,113,20,86,124,78,110,67,81,118,226,94,25,12,51]},"announce":[],"urlList":[]}}